# xmcd CD database file
#
# Track frame offsets:
#	150
#	18390
#	30532
#	51256
#	76013
#	98471
#	113963
#	132168
#	157775
#	174222
#	192173
#	215195
#	240380
#	259425
#
# Disc length: 3619 seconds
#
# Revision: 3
# Processed by: cddbd v1.5.1PL0 Copyright (c) Steve Scherf et al.
# Submitted via: CDex 1.51
#
DISCID=ab0e210e
DTITLE=Crystal Kay - Crystal Style
DYEAR=2005
DGENRE=JPop
TTITLE0=Bye My Darling!
TTITLE1=MAKE YOU MINE
TTITLE2=BET YOU DON'T KNOW
TTITLE3=Kiss
TTITLE4=Tears
TTITLE5=LOVE it TAKE it
TTITLE6=&BRAND-NEW
TTITLE7=flowers
TTITLE8=Magic
TTITLE9=We Gonna Boogie
TTITLE10=Baby Cop feat. Mummy-D (マボロシ/Rhymester）
TTITLE11=MY EVERYTHING
TTITLE12=home girl(bonus track)
TTITLE13=MAKE YOU MINE (English Version)
EXTD=YEAR: 2005
EXTT0=
EXTT1=
EXTT2=
EXTT3=
EXTT4=
EXTT5=
EXTT6=
EXTT7=
EXTT8=
EXTT9=
EXTT10=
EXTT11=
EXTT12=
EXTT13=
PLAYORDER=
